<svg width="1024" height="1024" viewBox="0 0 1024 1024" fill="none" xmlns="http://www.w3.org/2000/svg">
<rect width="1024" height="1024" fill="#171717"/>
<path d="M346.5 759.8H181V925H346.5V759.8Z" fill="#FE7B17"/>
<path d="M512 759.8H346.5V925H512V759.8Z" fill="#FE7B17"/>
<path d="M843 594.601H677.5V759.801H843V594.601Z" fill="#FE7B17"/>
<path d="M512 429.4H346.5V594.6H512V429.4Z" fill="#FE7B17"/>
<path d="M843 429.4H677.5V594.601H843V429.4Z" fill="#FE7B17"/>
<path d="M512 264.2H346.5V429.4H512V264.2Z" fill="#FE7B17"/>
<path d="M346.5 759.8H181V925H346.5V759.8Z" fill="#FE7B17"/>
<path d="M512 759.8H346.5V925H512V759.8Z" fill="#FE7B17"/>
<path d="M677.5 99H512L512 264.2L677.5 264.2V99Z" fill="#FE7B17"/>
<path d="M843 99H677.5V264.2H843V99Z" fill="#FE7B17"/>
<path d="M677.5 594.601L512 594.6V759.8L677.5 759.801V594.601Z" fill="#FE7B17"/>
<path d="M677.5 429.4H512V594.6L677.5 594.601V429.4Z" fill="#FE7B17"/>
<path d="M843 594.601H677.5V759.801H843V594.601Z" fill="#FE7B17"/>
<path d="M843 429.4H677.5V594.601H843V429.4Z" fill="#FE7B17"/>
<path d="M346.5 429.4H181V594.6H346.5V429.4Z" fill="#FE7B17"/>
<path d="M346.5 264.2H181V429.4H346.5V264.2Z" fill="#FE7B17"/>
<path d="M512 429.4H346.5V594.6H512V429.4Z" fill="#FE7B17"/>
<path d="M512 264.2H346.5V429.4H512V264.2Z" fill="#FE7B17"/>
<path d="M1024 877H637V971H1024V877Z" fill="#323232"/>
<path d="M665.9 952V897.4H702.69C715.17 897.4 721.54 902.08 721.54 911.375C721.54 917.875 718.42 922.1 711.855 924.18C719.265 926.13 722.97 930.68 722.97 937.83C722.97 946.41 717.705 952 704.51 952H665.9ZM683.06 938.74H699.57C704.055 938.74 705.81 937.115 705.81 934.32C705.81 931.33 704.12 929.835 699.57 929.835H683.06V938.74ZM683.06 919.565H697.815C702.69 919.565 704.38 918.07 704.38 915.08C704.38 912.22 702.56 910.66 697.815 910.66H683.06V919.565ZM728.805 952V897.4H780.35V911.05H745.965V918.07H774.5V930.16H745.965V938.35H780.35V952H728.805ZM806.326 952V911.44H783.446V897.4H846.301V911.44H823.486V952H806.326ZM837.195 952L859.23 897.4H887.115L909.15 952H890.82L886.27 940.17H860.01L855.46 952H837.195ZM864.885 927.56H881.395L875.09 911.31H871.19L864.885 927.56Z" fill="white"/>
</svg>
