<svg width="34" height="38" viewBox="0 0 34 38" fill="currentColor" xmlns="http://www.w3.org/2000/svg" class="w-4 h-4 shrink-0"><path fill-rule="evenodd" clip-rule="evenodd" d="M5.12114 0.0400391L15.919 9.98864V9.98636V0.062995H18.0209V10.0332L28.8671 0.0400391V11.3829H33.3202V27.744H28.8808V37.8442L18.0209 28.303V37.9538H15.919V28.4604L5.13338 37.96V27.744H0.680176V11.3829H5.12114V0.0400391ZM14.3344 13.4592H2.78208V25.6677H5.13074V21.8167L14.3344 13.4592ZM7.23518 22.7379V33.3271L15.919 25.6786V14.8506L7.23518 22.7379ZM18.0814 25.5775V14.8404L26.7677 22.7282V27.744H26.7789V33.219L18.0814 25.5775ZM28.8808 25.6677H31.2183V13.4592H19.752L28.8808 21.7302V25.6677ZM26.7652 11.3829V4.81584L19.6374 11.3829H26.7652ZM14.3507 11.3829H7.22306V4.81584L14.3507 11.3829Z" fill="currentColor"></path></svg>